<svg width="165" height="166" viewBox="0 0 165 166" fill="none" xmlns="http://www.w3.org/2000/svg">
<path d="M64.5367 1.56306C56.9367 3.6964 52.9367 5.96306 59.4701 4.36306C64.5367 3.16306 68.4034 4.4964 68.4034 7.56306C68.4034 11.8297 56.8034 20.6297 47.3367 23.5631C37.0701 26.7631 36.2701 26.7631 32.9367 24.2297C30.5367 22.2297 30.5367 22.0964 35.0701 17.8297C37.6034 15.5631 39.2034 13.9631 38.5367 14.4964C36.5367 16.0964 34.8034 15.6964 35.8701 13.9631C38.0034 10.6297 28.2701 18.6297 22.5367 25.0297C15.4701 32.8964 15.0701 35.6964 19.8701 40.2297C24.4034 44.3631 30.8034 44.6297 43.7367 40.8964C64.0034 35.1631 86.6701 19.6964 89.2034 9.82973C91.2034 1.56306 79.0701 -2.43694 64.5367 1.56306Z" fill="#FF0000"/>
<path d="M106.537 5.16397C112.004 11.164 111.604 15.2973 104.67 25.4306C92.2704 43.4306 46.8037 65.0306 25.2037 63.164C14.1371 62.364 7.07038 58.764 6.13705 53.6973C5.33705 49.8306 5.20372 49.964 2.80372 56.8973C0.537051 63.564 0.270384 67.4306 0.00371736 90.2306C-0.129616 101.431 3.33705 113.031 8.27038 117.964C10.4037 120.097 12.9371 124.364 13.7371 127.564C14.9371 131.831 17.4704 135.564 23.3371 141.297C30.6704 148.497 42.2704 155.564 46.9371 155.564C47.8704 155.564 50.4037 157.031 52.5371 158.764C59.8704 165.031 84.8037 167.164 101.07 162.897C111.737 160.097 126.27 152.897 134.137 146.364C140.004 141.431 151.07 129.164 151.07 127.564C151.07 127.164 146.804 130.897 141.737 135.697C127.47 149.031 116.937 153.297 111.87 147.697C109.737 145.297 110.004 145.031 120.004 139.164C140.404 127.431 152.537 115.964 160.004 101.564C162.804 96.2306 163.604 92.6306 164.004 82.8973C164.537 70.2306 164.27 70.2306 159.337 82.8973C153.604 97.4306 134.27 115.164 112.404 125.831C105.47 129.164 98.8037 132.497 97.7371 133.164C89.7371 137.697 66.4037 144.631 64.8037 143.031C64.0037 142.231 65.7371 133.031 67.7371 126.897C68.5371 124.764 68.4037 124.631 67.2037 126.231C66.0037 127.964 65.7371 127.964 65.7371 126.231C65.7371 124.897 70.8037 122.231 81.0704 118.364C123.87 102.097 155.204 74.0973 155.47 51.6973C155.604 45.4306 152.67 38.764 145.87 30.364L143.337 27.0306L144.004 33.164C146.404 54.2306 113.47 83.4306 69.8704 98.8973C58.1371 103.031 40.4037 107.297 34.1371 107.564C33.2037 107.564 32.6704 105.964 32.8037 103.697C32.9371 101.564 33.4704 100.097 33.8704 100.364C34.2704 100.631 35.3371 99.2973 36.2704 97.4306C37.6037 94.364 37.4704 94.0973 35.0704 94.8973C33.2037 95.4306 32.4037 95.164 32.6704 93.964C32.9371 92.8973 31.8704 92.2306 30.2704 92.364C28.8037 92.364 27.4704 91.6973 27.4704 90.764C27.4704 89.964 28.8037 89.4306 30.2704 89.8306C32.6704 90.2306 32.5371 90.0973 30.0037 88.8973C28.2704 88.2306 26.1371 87.964 25.4704 88.4973C24.6704 88.8973 24.4037 88.764 24.8037 87.964C25.3371 87.164 28.6704 86.2306 32.2704 85.8306C41.3371 84.764 63.7371 77.6973 76.1371 72.0973C104.404 59.164 128.404 36.2306 128.404 21.964C128.404 14.364 124.537 10.764 109.07 4.36397L103.87 2.09731L106.537 5.16397ZM17.7371 84.364C22.0037 85.0306 22.8037 85.6973 22.5371 88.2306C22.5371 89.964 22.0037 91.0306 21.6037 90.764C21.0704 90.4973 19.3371 93.564 17.7371 97.564C16.1371 101.564 14.1371 104.897 13.4704 104.897C10.5371 104.897 4.40372 100.631 4.40372 98.6306C4.40372 97.4306 5.47038 93.2973 6.67038 89.2973C8.27038 84.2306 9.47038 82.364 10.8037 82.8973C11.7371 83.2973 14.9371 83.964 17.7371 84.364ZM46.1371 135.564C45.7371 140.364 45.2037 144.497 44.9371 144.764C44.6704 145.031 41.7371 144.764 38.4037 144.364C33.7371 143.564 32.0037 142.631 30.5371 139.831C28.6704 135.964 26.9371 128.231 27.7371 127.297C28.0037 127.031 32.5371 126.764 37.6037 126.764H46.9371L46.1371 135.564ZM93.7371 152.897C93.7371 153.697 95.6037 155.431 97.7371 156.764L101.87 159.164L95.8704 160.764C92.5371 161.564 87.7371 162.231 85.0704 162.231C80.0037 162.231 71.0704 159.031 71.0704 157.297C71.0704 156.631 75.0704 155.164 80.1371 153.964C91.2037 151.431 93.7371 151.164 93.7371 152.897Z" fill="#FF0000"/>
</svg>
