<?xml version="1.0" standalone="no"?>
<!DOCTYPE svg PUBLIC "-//W3C//DTD SVG 20010904//EN"
 "http://www.w3.org/TR/2001/REC-SVG-20010904/DTD/svg10.dtd">
<svg version="1.0" xmlns="http://www.w3.org/2000/svg"
 width="420.000000pt" height="420.000000pt" viewBox="0 0 420.000000 420.000000"
 preserveAspectRatio="xMidYMid meet">

<g transform="translate(0.000000,420.000000) scale(0.100000,-0.100000)"
fill="#000000" stroke="none">
<path d="M1831 3755 c-170 -38 -356 -118 -545 -234 -64 -39 -116 -67 -116 -64
0 4 17 25 38 47 l37 39 -40 -23 c-125 -73 -304 -234 -368 -332 -80 -120 -69
-197 38 -267 39 -25 44 -26 195 -25 147 1 162 3 275 36 264 78 482 186 670
333 206 161 295 327 226 424 -39 54 -101 75 -231 78 -74 2 -138 -3 -179 -12z
m-27 -96 c99 -78 -114 -284 -389 -374 -96 -32 -237 -43 -275 -23 -29 16 -52
56 -42 75 11 19 138 118 228 178 219 145 405 201 478 144z"/>
<path d="M2582 3691 c167 -106 121 -323 -121 -561 -267 -264 -670 -481 -1101
-594 -190 -49 -271 -60 -403 -53 -137 7 -211 26 -290 75 -77 47 -101 95 -95
185 l4 60 -23 -52 c-26 -60 -75 -211 -93 -290 -8 -34 -10 -78 -5 -125 10 -105
9 -114 -10 -196 -33 -138 -12 -344 56 -555 39 -122 79 -187 144 -238 43 -33
56 -50 61 -77 23 -141 69 -223 204 -359 159 -159 306 -251 460 -287 60 -13 82
-24 110 -52 74 -73 141 -101 340 -139 61 -12 142 -17 285 -17 184 0 210 2 319
28 411 96 756 305 998 606 42 52 108 159 108 174 0 5 -24 -17 -52 -49 -148
-166 -361 -339 -500 -407 -68 -33 -168 -39 -222 -13 -42 20 -73 70 -56 90 7 8
16 15 20 15 3 0 58 28 121 61 222 119 438 277 589 429 280 281 384 538 351
867 -13 124 -29 189 -30 119 -2 -106 -68 -272 -169 -426 -116 -176 -408 -437
-663 -595 -170 -105 -401 -219 -468 -232 -14 -2 -35 -13 -46 -23 -45 -42 -422
-161 -587 -185 l-48 -7 0 53 c0 54 19 150 45 224 30 87 29 83 11 60 -16 -18
-16 -18 -9 15 3 19 12 40 19 47 6 7 90 39 186 72 96 33 215 78 264 99 440 194
818 454 1057 729 196 226 275 406 264 599 -5 90 -29 149 -109 268 -40 59 -156
206 -163 206 -2 0 5 -23 16 -50 27 -70 26 -200 -2 -283 -48 -144 -148 -288
-313 -452 -293 -290 -719 -541 -1191 -702 -264 -89 -358 -113 -565 -138 -143
-18 -170 -19 -170 -2 0 7 18 50 40 96 44 91 47 99 26 82 -11 -9 -16 -9 -22 0
-4 8 -3 9 4 5 7 -4 12 -1 12 8 0 9 -7 16 -15 16 -8 0 -15 7 -15 16 0 15 -23
44 -35 44 -11 0 -65 58 -65 69 0 6 -6 11 -13 11 -7 0 -20 9 -30 20 -16 19 -16
20 3 20 11 0 19 5 18 12 -2 7 18 15 52 19 178 25 226 33 330 61 263 69 436
132 655 239 595 290 1005 700 1005 1004 0 57 -36 137 -82 182 -45 44 -131 90
-263 143 -71 28 -162 60 -174 60 -3 0 16 -13 41 -29z m-1861 -1620 c41 -10
102 -22 137 -26 34 -4 62 -8 62 -10 0 -2 -26 -57 -59 -122 -32 -65 -71 -152
-86 -193 -15 -41 -29 -77 -31 -79 -6 -7 -119 43 -161 71 -47 32 -47 29 -18
148 13 52 74 230 79 230 2 0 36 -8 77 -19z m1082 -826 c4 -8 2 -17 -3 -20 -6
-4 -10 -4 -10 -1 0 2 -3 11 -6 20 -3 9 -2 16 4 16 5 0 12 -7 15 -15z m-399
-68 c-19 -60 -44 -212 -44 -269 l0 -68 -35 0 c-76 0 -190 23 -211 42 -45 41
-94 185 -94 277 l0 36 195 0 c185 0 194 -1 189 -18z m961 -525 c22 -33 45 -54
85 -73 l55 -27 -30 -12 c-63 -25 -203 -50 -279 -50 -115 0 -265 46 -305 93
-14 17 -6 21 64 32 79 13 277 57 313 70 56 21 65 18 97 -33z"/>
<path d="M1206 1888 c3 -5 10 -6 15 -3 13 9 11 12 -6 12 -8 0 -12 -4 -9 -9z"/>
</g>
</svg>
